<mxfile host="Electron" modified="2024-02-15T08:23:46.257Z" agent="Mozilla/5.0 (Windows NT 10.0; Win64; x64) AppleWebKit/537.36 (KHTML, like Gecko) draw.io/21.2.8 Chrome/112.0.5615.165 Electron/24.2.0 Safari/537.36" etag="j1XO-cPAlMwqXtRoMr60" version="21.2.8" type="device">
  <diagram name="Page-1" id="2XWkQP5S-hDbL94sL5Vg">
    <mxGraphModel dx="2058" dy="1180" grid="1" gridSize="10" guides="1" tooltips="1" connect="1" arrows="1" fold="1" page="1" pageScale="1" pageWidth="3300" pageHeight="4681" background="#999999" math="0" shadow="0">
      <root>
        <mxCell id="0" />
        <mxCell id="1" parent="0" />
        <mxCell id="APLwThIm-aDqV8bCMrbt-1" value="DelayButton" style="rounded=0;whiteSpace=wrap;html=1;fontSize=25;fillColor=#dae8fc;strokeColor=#6c8ebf;" parent="1" vertex="1">
          <mxGeometry x="1298" y="140" width="650" height="60" as="geometry" />
        </mxCell>
        <mxCell id="My6FAL-nePORTE5DBMDz-1" value="" style="shape=image;verticalLabelPosition=bottom;labelBackgroundColor=default;verticalAlign=top;aspect=fixed;imageAspect=0;image=data:image/png,iVBORw0KGgoAAAANSUhEUgAAApYAAAFZCAYAAAAipG/2AAAAAXNSR0IArs4c6QAAAARnQU1BAACxjwv8YQUAAAAJcEhZcwAADsMAAA7DAcdvqGQAACmwSURBVHhe7d0NjCPnfd/xP7m73Pfb23u/00k63bvuTrIk21X8kthWLLe2a6dIIBStk8KGGycC+hIEKJIAbiq0hh3ABdw2DpCmMJykdhOpcaBaDpra6flNNmzHL7IjS9Wd70WyTveu27vb2zfukn3ehhySw7fhQw5n+f3cPpzneWbIeeFw+NvhDi9zz72vKYqoH6VoB5GKUSNVX/RdGjxQBxotH9CX2GmB/pXJuAqQDp3tsu3d2UwdMcNMg4XQo1SwvNe889V7/2s9UKo+3kP9iLkh2fxIDntfY+0d0AG0J5FX2Dr7xcSuTu062e6I/jrrb4JldHaM7Ow8UMYMTVr8e6J7EnhWUrQjsM8C/Sv6bbFPJbKwqdpCA6GjZ6SNIBwVMm1X7WNUB8zMsXvsGctAZKDUakJlRKCsmWY9SGCNYs5y/W37QZeiZ5Sdr3tqj+Pwho3bbxJ5RmLPdH3tP2ZtqkOi7TR1LWqaQBAwmwfLiLDYyjT1tT5ljQ7uGlcCs0zAYGzYwXguAfSz6LfkLuv5TBNZy1SJvYU62rSt3dlMFSNg1gTLVj76bhwoXU0NqqZKuZhr08FGWF/brxsS2EID8qSw7yEplW9RfS6RhU3VFuq5jrZO7Duvn+fErEn5xrDNynUMB8zo8ZkGwbIqNNaODjrcUA2qJqmjtakixbxrB3NMSG9XNH3bZ1Ck6JlhJ+o/lcd7RGIjNZLI1ok903Q9l/23mvaBzW35xqj5G8pm43WwrA6Vle2qUKka5aaq2R+nut0vOliimHftv23QSO+3TyfStW2TwBbCIKl8U0Ot2Fuo93dMlao81ab+20bhwFiuhtu2rjUKl5mjx+4pvwtVhEatMlRWn6UsN2vvV1eDUc10cNf4whugDYksayJirumAbKDB2Q8AtKL89ttDsWeayNL2XDKbJ96duzfL8khTc0GxJkCam8bjKoJl3TOVFcFR1eyPqVfmrup2lKYT1Bfzrh3MsQODsp6DIkVbN2U7Avttd5QP9+tcIis6MFu352Jv2Y6ekt4/n/24nmasC41aEBzdILipmK4mXFYEy1B4rAiYVaGyNEpVhkdGZHJyQnIjOcmN5mRoaEhP0jXhJUGEVG2e3i8sew+ApJXfgnspmbnGkqJFTYKLed2hHnptbU2Wl5dlZSUvCwsLsprPq347z3CItFVb14KPwvWtDZYxQuX09LTMbJyRq9duyeJyXpaWVyW/uuYmQOeCJ6w6DpWfSABpsY5et9WHpGrVq9pseqRbO8937JfBetuJwusT3ijJr+fI8JCMjQ7L+OiIbNk0JXNz1+XmjRtqMe1ythQujx49FoqSleExql8Hzy1btqieITl/+bqs5AmT3VF+sgD0u+rXa9QbRIKv6WBxWl2EqMVvVdQ8Onk89K96+1Oj5zvWy2C97UDh9aneIP2zrrmRIdm5dUaGh4py6dJl16uW2CyyXW5bdXXXny2vQrNQqYdF2TA9rWpD8uIrrxIqu8Y+SQCSol+Drb4Oo6YL7h8el9AbRni2ut5oMZqN7xfVmxb+hXfheqWeRuOQGjrj6ay3upYxn1LbT7TLmbB0aztK/VnTUlx/JdUZTKiHI8PD5uNvfaYSANa/Zu+grQju30fvtvq4HpRAuA40Ur3vIKZ0JHCd+TbOzJgMGM6EUTuB7jfBMvx3lbpuW8HQTqhNTk2av6nkTKUvUTtVOnY0YH0rHxMt/boMSlirr9c+fV2HFytYvaA00mh89aarbvugH7Mbj4uyYBuHt3OzNlrU7AXWX3Tmu3JtXiYmJ0w7yIR26LJiKEeqYBnaK0Ij3JSqy/Wpob76W1+oAx+CHSs4igcFQH/rwetVH3ajShz1FrPZ4tdbxaCv0f07XWb0l2bPZfj5bmVaKM1egP1FZz+dAYOcGHwsHjyfZuDGZYPcqJWqqtNOZFqltv5KIX31NzqVrh0KGEyhg2Ov6Fk2mm2z8d0QPlwleejisIkSvTM02iHSurMkcMxpkc5+o6OjdgmD4KgG4bbrlczdR466nuCjb32WMqKthnvu3CM//sl501vPhulxc7l6u/RXFd24ueha6xlHRyA9evx6tQfd5tpdrHqP2+rjhO8fvk+ry9upYJ69mh+6r619uN0dMK07TH8v79H9O+Xsi2dVLVO6ArxmqG9NsCyFSLVaNlW6MBm07XDPnjvluZ9cMO16PvHxj8i+/ftcK1rwXUfnLlwpzefWjavym//mw5LNth9K08GuM4A0Seh1GxyQo7SzSI0eJ6zRY7b6GEAjHb+U9I5Y/SD1dk49XVp33P5d7iP7d8jZsy+GwqR9Pqrb9uIdU1VKadIOgnbp7yxbsHFmWo4ePtCwHDm035SH3/Iz8o632rJ1y+a25gMA65Y+PgclrLpdjz6UtnM4rTc9h2R0Kmo/Dgv2vXr7YEnUg7Ta19h/+He/JS+d/L6cO/3DyKLH6Wn6zTePf17e+ODrXKuWHveN//u/XMuX2hOPpefNtc0Zy/JId+ayahiMb+WM5Z9+6vdl9+598uTXT0omW7RlSJeCvOs1+2XH9hmZn79lpp2cnJTPfeOMqd81vSC//P5fl6GhYdOu9uz3viazsxtdS+TatTk59tqfc636Pvj+98kH/tk/kTc/9A9dT+s+8tjvmPsGvvg3X5EPfOhfuVY72t/RAfSDPnnt6kNwq4tiD9ed0fPy8ThAs/22ej9r+SXX6EXR3s6rg+PD73pEzl+85HoqbZqdla/9zZNyx4EHXE8vNF8HHRw/+Z8+Jv/iN35Hvvnt77peq9G4uOwZy+CjcLvt9dDUQsPS91j6oh86kxmSM9fn5ezNm/Liwg356fJ1eTk/J/l8QYVUVdy/wFCuta8v+sV//H65be+9pvzt955Rv0n8SB58fXef6O//4Eeleb7+tfeZoNrMU5/7jAmlgU//0X82BQBia++9sjO9nBcQS6ME2mhcraGhIRMqb9y4GVnOvviSmabf6MCog6MOkOEzl90Ile3wHizXCgUz3Lp5VDK5Vbm+ekMuL12Vi4v2vwPKVB2wxmaXZGLLgmu1Tp851GcQP/zbv+l6um/u+g1X0/SOG1WqRfUBQAv08TJ8zKxuV2s0DkiDZvt4ywbjvbc6XCYdKrVQsKz8+LvUdre6P6g2Ekzy/MWX5czceZlbvSaLclNWMvOmv+iea3fSVCY3zsvElB3Xrqe/+e2Kj8f1x+X6LKYu4TOGAX22MRgfTKPPeOp6+Mxn9RlHTY/fOLNBPvXHn1WtjDx9/Cn1eP/UjlSCtr7vA/ffaz5C14+rz1S+4+1vNUX/rUYwn/Dfbzz1uf9u+jRd/8hjv10apx8XwDqnD5xRpZ6oaXUB+k2z/bJe/vOyP6c1XLa38uFw2dVQWTrOqBv3J5K6brvKn0N34aNwa1EFyZHxvIyM5WV4dEVGVDHUnINQqR3eervs37jXtdrz7I+fN2FPe/r4F+QTv/9fSx9b/6P3vNP0h+lQGIzXH6vrab79t983H3e/591/300lcteeO+TDj33M1HVI1AHxLx//Y3nyqf+tehrvqO/5pV8xj/fpP/0zNZ/XyAc+9K/NmVVddFvP79nvfbU0XhcdjsMfletQGozT6xcOsAB80K/jqOKJPsKGSyPNxneiS6sH1HPuzDO15XRtQSeSeEG3fqDyHiwDJlCqMjKqSyhYqm0RXrz9s/tMiePY0btLH0/rMPjvf/e31A5rz0bqsBb195A6gAZBMaAD41t/7k2mrs9U6r/fDIT/xvI19xzt+G8lgzOWH37s98xQ0yHzwP5yuNbtwJmzL5l1A9ALXTpgtxIwgXXgtrvuiy57K0uFei85XjMtCX/8Hf5YPCldC5Y2VNpAmdPDnA2W9grzYG8pyko+L4uLS67dHn3G8eRPTruW2qFdAAyK/di6TIfKr3ztG2acPmMZCKbToU8HzD/8b3+iWuE93b7Z/PDvfixbNm+yXZ7pq9wB+BCEw3rvVvX6wxrdvwPVAbPbb5zB/KrnC/RSqy+5rujaAyfMvqCr/6ay+m8uk+A/WKrncHl5UR7csk9eN3tAHthwUO6bvFvuHT9q+u0k9onWGbNQKJQu+GmH/ltGfSYv+PoffWbv03/0X0y9ET2d9uu/Wg6Wmg6cwYVA+uPqKPqM5ZWrr5q6DoJvfuODpq4Dafisop7mtl07XUvk3CvnS4E0eGz9d5QB/dG3Dq0AOlX9JqLb4b7q8V3QSoAj6GFQBft+q68BL6+Txq/7tbU185VC9ezYsc1M0z/sRql3oU7S4dJ7sNQZ8e5Dt8uvve3t8mtveYf86s++U/75z75XPvimX5DDh3bLxMSkbNu2VTapoDWSGzHBMptt7WCvP74OPurWwt9jqb+n0l4gY8frC3mq6fAYfFxefeZR/02l/ntKPU2Y/RtLeyGNpv9mUvvI732idEHOp/7wE6XAqumLioJx2lN/9cXS4+gQeuy1b3EX99jH1Wddwx+NA6hWHRDb1en9m2jnjbIdwWJ3efGBrmlnv603bZfD5Z985nHzPZXBe3J1+c7X/9pM00/090d+/KP/tiZUBoJw+R8/9ruup3dCX5BetBf5lK7sce1Q/549e+S5U42/IP03/uWH5P777nWtWtls1hSd/ktfzK786IfPysc/8UnJ1vmC9F7QYVSHPgD9JvymUD5u1EoofTVapE5Ur0635gN0U7AfR+2/Pl7a+n4tvfTT8gJqbTl1uAznqO6x8ziyb6f9gnS1rc0nz/pL0c12d59Dm7Yqh+8+Yu4RLFxpIdXQ/NNNU9cXyDQPluYL0Av6S9DboxcqowJnJtO1P/usYjZDSXBRTnBGEkA/CV6vUUeWytdyoto98LVKr2K3Hhvod95e4ml6EYWXNekDgJ23DpZnVLA0T0cQIl3dDnRfFz4K18FQn3XU/zVjO0Xfp7NQqVfMrlxzldPpU936f9UhVAL9Sh/Yog6srb7me6Rbi5PkewqQJG+vqbS9iPSKByVdenV6sMvCG77Zk1A7Xn9fJB+BA/0kOKA2ez0DWLe8vfz5zayX1kmwrMabEbB+8HoGgLRYJ8Gy3kdkUQVA+kS9lnUB0Hd8vTw50eika0OkKFg2ezPRGz4oANItBa/jeovo600VAG/pKZSSYFl9lObIDXSmG6+hTh4vWJ7wY/TxO0qwaHpIwASi9e3+n6YXZ9QBpr+X3wVLt+DBVw2ptqm5G9urb4Px/SItOwbQr3y9hoLH8fF4Ph+rC/rtMAj0q269Vpo9bsPxfXpcaVlyy2/SoPv6SbORw3UzUG1VXQd/Y6k3cnhDp32nAXrJHRA6FjyOr8dL0es4alH1ZggKMGh87/vVj9Xs8FAzPuhI0XGlRC9zuPS/hINlKxuq1Q2Zno0OJK8bqafR4wWvz3qvU9/L0gVRmyylqwKkTtTrLxCMa/jaq36xNpwYJe1vJ/c/79jTl+HTmuW2q6uh/p93vvSlL+kGAAAABsTbH35Yzp7R/6Wj/R92zP+74+quZdrr4KNwAAAA9AOCJQAAALwgWAIAAMALGyztH1YGA1dxf28ZjFPD0ngAAAAMlCAHljNhORwG4zhjCQAAAC8IlgAAAPCCYAkAAAAvCJYAAADwgmAJAAAALwiWAAAA8MIES3OJuP1/G3XFtE1T3ZTHqWIaAAAAGCg2ELpMqKs2F7qWU+SMJQAAAPwgWAIAAMALgiUAAAC8IFgCAADAC4IlAAAAvCBYAgAAwAsVLO2F4qXLxU2l+uLx4AYAAAADSWXBcBy0dd3pamrAGUsAAAB4QbAEAACAFwRLAAAAeEGwBAAAgBcESwAAAHhBsAQAAIAXWXuFuL1MXNO1oM/2mh5TAwAAwGAq5UIVFMv1oN/ijCUAAAC8IFgCAADAC4IlAAAAvCBYAgAAwAuCJQAAALwgWAIAAMALGyyD68TN9wy5RjBwXfrC8uDicgAAAAwOmwFNICynwVJdV2yNM5YAAADwgmAJAAAALwiWAAAA8IJgCQAAAC8IlgAAAPCCYAkAAAAvTLAMLhs3Q9ewddsI9wMAAGDw6FhYioOqUa6X+zljCQAAAC8IlgAAAPCCYAkAAAAvCJYAAADwgmAJAAAALwiWAAAA8CIbfKVQcKF49K27pNx2AAAAYJCUMqCqhL9qSNXCdc5YAgAAwAuCJQAAALwgWAIAAMALgiUAAAC8IFgCAADAC4IlAAAAvCgFS/utQ+6C8Zo6AAAAEKZCYiknFk2W5IwlAAAAvCBYAgAAwAuCJQAAALwgWAIAAMALgiUAAAC8IFgCAADAi8pgGf6GIXdTqpvvIzItAAAADBSVAXUWtD9WVV3jjCUAAAC8IFgCAADAC4IlAAAAvCBYAgAAwAuCJQAAALwgWAIAAMCLzMFDh4v68nFzlbgeuroe2n7dZ8ft3XuXbH7DI/Lk8/OSH57S9wAAACmTzS/I2LnvyOSZ464HiLZr1y559NFH5YknnpDTp8+o5JhRP6rokVH1doPl1ze+U/KH3iWy9aC+BwAASJtrL4q88EV5b+ZbMi7LrhOoVCgU5JVXXpH5+XnZvHlzd4Ll8S2PiDz4QT01AABIqx/8ubzh/OMyVlhwHUClsbExmZqakq985Styzz33tBQshzZv2fKYbrdidnZWzkwcFbntPtUyaZNCoVAoFEoay4Ufy+3zP5bhYl61gVqrq6smWJ45c0a2b98u167NdSlY7tLBEgAApNbF5wiWaGpycrIXwfJe1Yr47YdCoVAoFEo6ysXnCZZoqt1gGfPrhiJ2UAqFQqFQKCkqgH+hM5b2oh3L1sytu9H/9BnLs/qM5c573AgKhUKhUCipLJf+H2cs0VRwxnKbO2OZyZiTk2LOU7qzlOUzlhXBsrnKYAkAAFLr0gsESzQVHSx1mPQZLHeoEvXbD4VCoVAolHSUyycIlmiqR8HyiGpF7KQUCoXSxTI1Myp3zw7Jjqkh2TaelYlsURZXCrJmv2y3ThHZeccGeWgiLyduFkL9rZXwPDePihRW1mSxED0thZKqcvkkwRJN9SZYbtfBEgB6a2zjpLxpVmRhLSPjY8Nyx/ZxeXDXiGTnV+T8sn6zjDa9cUxuKyy7YNme0jwLGZmZGZO/tzsny68uy5VVN0EdI9Pj8tDuIbn66qr5f02q20DirhAs0Vy7wTLeVeFFdXCmUCiUnpeiFJeW5Ltnb8rTP7kuX3jmVfn8KyLH9k3I7mx5mtFcRqaHipIJ3c8W29YHv6mcCo0ZN16KMhzUXclmVJ/oupvnmZvy5eeuy3cWhuSuaXsczJSmsaXUVo83MpSVLWP6WKsfu6odus/IcEY2qGWpfpwRtTzBcuZC4ygUbwXognhnLLfd7XoAoHdGp8flQC4vz7+6KmumpyiLt9ZkfPukbFlYlJcKOXnz0Y3yhm052bdzQg7lVuXMnBq/cdyesbxRkOltM/KLhydk3+yY3LN7XLYtL8u5kUn5pUMjcunSitzSJz6HR+Vtr5mW8VcX5fp4eZ7F3Igc3TkiV88vyPmVrBw4NCv3FZfk9IK+U1b2HZyV12WW5OXcpLx3/5hM5oZl7/Yx2ZQdlvvvGC21Z/SyruXkTUc2ypt35uTOLRPygHrc/PVluZwX2XHnrDy0dUQO3j4ph7eNy2u3D8vclWVRqwL4c/UUZyzRVKwzluEPkExd3+jf7l21NEEwNL+RUygUSq+LPghV9RVWZW5JHfxyWblrz5RsfvWaPPGDK/LEM9fl6qYpOTKpp9Ps9Gu35uWp712W//nDy/KXZ/KyfceIjN5YkLOSk72T9vEnNo7K1oUFOb2k71OUsU3T8sjrtsivHBuT6y/OybO33LyNoF5uL1+7Lk+eXJKFhVvyhe9eli//dK6i/bVrRbOs267PyRPfvyJ/8YPL8lcXs3L/nlGZNo+TkRkVZr/+jFrO71+V7yzn5OgmfegOz4tC6bQAbQgCof6xA9cOf11l7I/Cg0elUCiUXhZzAKrpyw0VJV/Myu4p1VS/Xb/t4EZ5eO+4TBUyMjuqApmaJph+YbEgW3dukJ8/slnefUdOcupX7OG1FTl5uSA7Nw3LsH6cLcNy6aIKgu7xF6/dkM8/c0WefGFBRnbNyrtv19PZcRXLorl6QV/gExpX0c4Oy21TBTlzaVlWTF9BXr26JLfGR2SzWhc9zfVryzJn7rMmr95ak+HhjGSC+1MoPgrQBfyNJYVCSU8xxx/9pljuy47lZM/Yqpy7WZCMFOTSpXl57oItz5y+Js/O68+P9ZuoLkNy35FNcmxoSZ49dVX++tSiLGbs4129vCirs2OyfTwnB0aX5cTcqp2HkimsyfJKXq7fXJBnzq3IxMacTAXj9Jkftyzm4yA9HzPOzdONq2wXJWs+MnLjVCm6aSqGwTjTVW5TKF4K0AWcsaRQKOkqij5zp0Pc1PSkPHRkWorn5uTErRW5uJiVHRMFuXhtSc6pcnFpTZaW9ZuoO25l9VcGrcqZCwtycWFNJqZzMh487uKCvLCYk2O3j0v26i25sOr6dQnmmRmS2zePyNpCXhbVG/PiSlFmJtzZy+Gc3D6lz466++izjSo9ZqPaqytybj4rd23NyYgZL7Jp05iMzy/Jlbxtlx5HFyPUplB8FKAL2r94Z/KoyJb9qqV3SgqFQuldGd0wJffeNiXHdm+QB+6YlkMzGXnl7GX56oW8rElBrt0SuXPvJvmZnROyb+cGuX+LyLnziyIbp+S2tVtyYm5F1iY3yBvvmpIDO6ZkR3FNMsOrcur8kiyp+98qjsnrbx+Sk6fm5LwOeDXznJLt+Vvy1ZM3ZW6tKAv5rOzfOyv3b5+Qu7cNydJSVrLz83LqVkEKaxnZetuMPLBrXGaWbsnZeQm15+VHF1Zl652b5U27J+Tgrmm5e3xZvvXCdbm0qgLz7JTsVsv7wg17tc7U7KTsLizKC9f1dxzVbhcKJVa59iIX76Cp0sU727bLtblr6pd69Qt0cNGOrla3Dx46XFTUXfVHL+rW/Sajh6Y3aKt/e+/aK1/e+ojI4X9gZgYAPaWOWjn9GbI6Hum/WdQnFWuoacZHh2W4sCa3VlTA013qPkPqOGanz8hIbkjGVKi8qXLasHq4VX02URnfuk1+YceifOHvborKgZZ6vBEzT30oLKhpTbUkkx2SyVxG8iurkhcVLPU0wXJlszIxkpGVlTXbV91Wy5JTyzqmYvH8sl1W06vmOaTWMXic6jbgxemvyxvOPy5jhQXXAdTatm2bHD9+XI4du0dOnzldGySr2vHOWG7e53oAoIdUOFxTIVAXlwVr6QC5uiYra/aXY0P1ladX9bWCGW/71XAoK2PDo3Js/7QsvnRVfrIYenA9jZ5fvXmqILmi0qZ9uKppVDuvxpX6qttqWdbUsi6rxFjx0BGPEzlvoBNzL3HGEk21e8ayHCzNQcseucrHr1Bb3ZSD5V7XS6FQKOkvIzOb5L33zsjQhUvy9IUVWYuYhkJZd2XupwRLNFUdLE2UjAqVdkzMi3eidlAKhUJJaclfuyx/8c0X5f+8tCgrEeMplPVZAP/ifRS+aY9qRe2kFAqFQqFQUlGun+OMJZpq64ylGnYQLAEAQGqZj8KfI1iiod4Ey9k7VSvitx8KhUKhUCjpKHMvy+23CJaob2xsTEZGRuTs2bMtB8vy1w2pYv6ZanR779698vTsOyW/8wGR6R1mpgAAIGUWropceFbem/mWjMuy6wQqFQoFeeWVV2R+fl42bdpsvm7Ie7Dc8sZH5Mnn5yU/PGVmCgAA0iWbX5Cxc9+RyTPHXQ8QbdeuXfLoo4/K448/0WKwPHhIx8ZQmAzVQ21d9u29y3xJJgAAAAbHQw/9vJw6fdqFynKQVDeltq7H/LohAAAAoBLBEgAAAF4QLAEAAOAFwRIAAABeECwBAADgBcESAAAAXmT11wmJ+VKh8K39miFDf/VQuQUAAICBE2RBNTTZMOjRt+XcyBlLAAAAeEGwBAAAgBcESwAAAHhBsAQAAIAXBEsAAAB4QbAEAACAFzZYmmvE3UXjwfXioUvHw+MBAAAwWFxKLMXBUlvfuj6NM5YAAADwgmAJAAAALwiWAAAA8IJgCQAAAC8IlgAAAPCCYAkAAAAvooNl6bLxyq8cCl1NDgAAgEHigmBFHqxqcMYSAAAAXhAsAQAA4AXBEgAAAF4QLAEAAOAFwRIAAABeECwBAADghQmW5krx8k25apvBAAAAAAOslBSL1elQ93HGEgAAAJ4QLAEAAOAFwRIAAABeECwBAADgBcESAAAAXhAsAQAA4EVlsAxdOV6u6loxPAoAAAADpiYLqo7qPs5YAgAAwAuCJQAAALwgWAIAAMALgiUAAAC8IFgCAADAC4IlAAAAvCBYAgAAwAsVLO03EOnb6lol1RfVDQAAgAFQmRFtzfW5bs5YAgAAwAuCJQAAALwgWAIAAMALgiUAAAC8IFgCAADAC4IlAAAAvMjaq8TdNeJadTXUBgAAwAAK8qAeqlIRD11bF85YAgAAwAuCJQAAALwgWAIAAMALgiUAAAC8IFgCAADAC4IlAAAAvMhWXC4eCHWaanANOQAAAAaTy4KNIiFnLAEAAOAFwRIAAABeECwBAADgBcESAAAAXhAsAQAA4AXBEgAAAF7UBMvyJeTl7xhqdFk5AAAABkNlJlQt+1PCGUsAAAB4QbAEAACAFwRLAAAAeEGwBAAAgBcESwAAAHhBsAQAAIAXoWBZvljc1ErN8EXkAAAAGDzhPKjrqtRExCJnLAEAAOAHwRIAAABeECwBAADgBcESAAAAXhAsAQAA4AXBEgAAAF6YYGmuFq+5ZDxKSxMBAABgXarMghUt1eCMJQAAALwgWAIAAMALgiUAAAC8IFgCAADAC4IlAAAAvCBYAgAAwAsVLO2F4uXbULvULJarAAAAGCg2B4aSoKqWW3asxhlLAAAAeEGwBAAAgBcESwAAAHhBsAQAAIAXBEsAAAB4QbAEAACAF5XBMnQVuVbZrBoJAACAweK+WagmFbo+zlgCAADAC4IlAAAAvCBYAgAAwAuCJQAAALwgWAIAAMALgiUAAAC8aBgsM25orykvtQAAADCIGsRBPYozlgAAAPCCYAkAAAAvCJYAAADwgmAJAAAALwiWAAAA8IJgCQAAAC9qg6X5aiFz424DlS0AAAAgoJMiZywBAADgBcESAAAAXhAsAQAA4AXBEgAAAF4QLAEAAOAFwRIAAABeZMNfL1TCNwsBAAAgTOfDmoxY2cEZSwAAAHhBsAQAAIAXBEsAAAB4QbAEAACAFwRLAAAAeEGwBAAAgBc1wbJ80bitldo1l5cDAABg0NREwlAHZywBAADgBcESAAAAXhAsAQAA4AXBEgAAAF4QLAEAAOAFwRIAAABeVARLfbV4xlYdvmMIAAAA1XRGVMX+lHDGEgAAAF4QLAEAAOAFwRIAAABeECwBAADgBcESAAAAXhAsAQAA4IUNlu46cf1VQ+FLxgEAAIBmgvzIGUsAAAB4QbAEAACAFwRLAAAAeEGwBAAAgBcESwAAAHhBsAQAAIAXNljq7xlS+KohAAAARHJ50XINNdC1YBRnLAEAAOAFwRIAAABeECwBAADgBcESAAAAXhAsAQAA4AXBEgAAAF7YYGm+Z6jelw3xJUQAAAADLyoSqj7dHYzijCUAAAC8IFgCAADAC4IlAAAAvCBYAgAAwAuCJQAAALwgWAIAAMCLrLk8PFO6ieD6640GAADAgIn67iHOWAIAAMATgiUAAAC8IFgCAADAC4IlAAAAvCBYAgAAwAuCJQAAALzImm8RMleMR182DgAAALTy1ZOcsQQAAIAXBEsAAAB4QbAEAACAFwRLAAAAeEGwBAAAgBcESwAAAHhBsAQAAEDL7LcORX/3EMESAAAAXhAsAQAA4AXBEgAAAF4QLAEAAOAFwRIAAABeECwBAADghQ2W5orx0MXjoTYAAABQqzYrcsYSAAAAXhAsAQAA4AXBEgAAAF4QLAEAAOAFwRIAAABeECwBAADgRU2wLLqhleGbhwAAAFChFA1VJRwTOWMJAAAALwiWAAAA8IJgCQAAAC9qgqX9nDzqjyrd31sCAABgMOkwWB0IVTvocsHSNs2tubGX8JTbAAAAGFQ6DkafYqzsq/NReGgid5m47lldW5PLly/bDgAAAKx7Ovutrq65VmMRwTIUKnXVNG3f8tKynDh50tQBAACw/unst7S85FouJ6qBq1muka3sLQt3B/XllWU5eeKEawEAAGC909lvZXnF1G0mdMmwFBbLqbHyjGW5v3ZiNZi/OS+f/ez/kJdfftn2AQAAYN3SmU9nv/n5+cqc6BrlLvsXmCpYhke4WzPQN7YdDPL5vFy4cEE++Qd/YDsAAACwbunMp7OfzoCGyoQuFiq2UWqrytCmzZsfCxqhQUk5ZFr6M/arV67KqVOn5PDhw7JhwwY3BgAAAOuBPlP50Y9+TI5/+bhcvXrV9GV0KFTFDHQ2rKmrsv/AwaIU1Y+6Q1ENbd101a8rMzMbZMeOHfLL73ufHDhwQA4ePChbt261IwEAAJAq+urvEydOyMmTJ+Uzn/2sOVN54/oNO7I6QKqq6TFduuH6w8GyXpA0gTOif2RkWKanpiU3mpOx0TEZGsqqMWbSBhqObCj2PePPsgO9n2m6VjORpe25Adn1lMF4PpNhjt7rXwKrOSBbVom5pgPznPR+rjaU9VqDmapReqz+SqHl5SVZXlkxf1OZz6/a4GgmcCGyVLdt06PrpqqGJliqNwUTGt0wOkiaycxQ/7M/oX57UxrWY8bHFfOuScyzE7GXN/ayxl/JBDZPup6TtBmQ1UQT5h0C9bi30N7qYJbx75qe9UziObFn6Xqsg1k23EZqlBnvwqKt26FZz1JfeHx1XQ31Qx1QwdK8l5jAqAfq1oVHMyJcN0M93tQq6jXDOsx9eq2DWTZal4YSWc0BWNZOJDDLTiSyjYCEmDenQRBzNTvbOonMNJZE9oPYm6eDZe2zeZrHNT/hoboN9+l20K/vY0bauhkG/QcOqmCp37/UjR2YW910faqif2rqVeP1P9tpfupx94wn5l0HZZ5xdbSscSUwy05mmrLFRZck8Vpxh23Uk8Dm6WyWMe+dot0gkX22g1nGXt71NE8zSk2hhma60jDcZ+umpeumWjVedx04eEjlRHuwjAqV9er2pzw09w311WPG91oHs4y9vIms5gAsaycSmGUnM01kcQdFmjauOXqvf8msZgJzTWSWPZ5pB7Pr+bJqMWfZ0bImMc9GglBoU6Kdj+sL2jXjquqmpZs6WNqwqNQESD0wt7bPDFXF/Lihm85OH4xrwD5QLG5OvRVzlh0ta49XM03L2olE9p9OpGxx4xuYFe0xc6Rf/1K2muaNuNd6PMu0rWPs5U3ZPBvd2YxRN2a5KkJjZZ9p6bqp1ukzwVK/5epjuwuJtWGyzjjXZ4eqZn7ssB53j3hi3rWjecbV0Wr2eHkT2Tzpek7iSmQ90T1JPJ3maI163NtZeiSwuD3fRmlbx5h3TWTfs0kulob3VCPN+ugfMw+3djoo2orpD/eZVrgvGB7UH4WrevMwWTWNGacq5idiWE+DUc00fNxGOphnXLGXtQPB89RTCcwyriSekzRtn6Qk8rwMAHeYRyMJbKJEnpcU7Qo21PRW7Oeko0WNd+duzdJsA/MTHroto4ehPttVOc6MdX01wdL9lEJKK2HSTura7n71mPvFFfOuScyzEx0tbxwdbZ4ENlBcg/Bcdipli4suse8dqeDe3tIjgcXt+TYahHXUXMiKI/Y9O1jNhttIjTLjzSSqFmrbobu3HtqKGpqKGYbHZQ4e0hfv6B71FqiHJjzWDiuDZ51pQ/3dEMylbR0sTux5dqLHs0zbOiayvHGlaFEHSZr2IXfIRjekaNN2tB/0eD0T2WcTmWXvn5OubVv1sDYgusevDotmgmBYOc71urYqBw8dVsdYd5itGlacraweumnqDutqPLahmHdttkQNdXDXuGIvb5qWNQlsH3QqiafTHLHRDe7tsLdS9Hymafuk7bmMvbwdrWb9O5sx4cBYPbQVMzS9tkMNgmnK/TZY6rc/d8A0YbIUDl1/vXaDYT31x7SgweN2i1uj3oo5y/hL2sE6JrB54krkuUzCwKzmgKxoAtxbRW8lMMskDMa2jT/D2PfsYB3T9Jx0bVlLAbGNoSquqm/LQxss1UE6CG0RIdHUzI/65yYLxld/RO5+Gmg8tpHSvNsWf56d3DUuu2V7KJHNk67nJAk93w+AFHJvc+mRwOL2fBulbR3TtLwdLWv9O5sx6sYsVzg8umEwqDe+PBT5/5M5PPsoPdE9AAAAAElFTkSuQmCC;" vertex="1" parent="1">
          <mxGeometry x="1292" y="220" width="662" height="345" as="geometry" />
        </mxCell>
      </root>
    </mxGraphModel>
  </diagram>
</mxfile>
